<?xml version="1.0" encoding="UTF-8" standalone="no"?>
<svg
   xmlns:dc="http://purl.org/dc/elements/1.1/"
   xmlns:cc="http://creativecommons.org/ns#"
   xmlns:rdf="http://www.w3.org/1999/02/22-rdf-syntax-ns#"
   xmlns:svg="http://www.w3.org/2000/svg"
   xmlns="http://www.w3.org/2000/svg"
   xmlns:sodipodi="http://sodipodi.sourceforge.net/DTD/sodipodi-0.dtd"
   xmlns:inkscape="http://www.inkscape.org/namespaces/inkscape"
   width="128"
   height="128"
   viewBox="0 0 33.866665 33.866667"
   version="1.1"
   id="svg8"
   inkscape:version="1.0.2-2 (e86c870879, 2021-01-15)"
   sodipodi:docname="icon.svg"
   inkscape:export-filename="icon-128x128.png"
   inkscape:export-xdpi="96"
   inkscape:export-ydpi="96">
  <defs
     id="defs2" />
  <sodipodi:namedview
     id="base"
     pagecolor="#ffffff"
     bordercolor="#7d7d7d"
     borderopacity="0.49019608"
     inkscape:pageopacity="0.0"
     inkscape:pageshadow="2"
     inkscape:zoom="1"
     inkscape:cx="57.351428"
     inkscape:cy="43.544473"
     inkscape:document-units="px"
     inkscape:current-layer="g1447-6-6"
     showgrid="false"
     inkscape:snap-bbox="true"
     inkscape:bbox-paths="true"
     inkscape:bbox-nodes="true"
     inkscape:object-paths="true"
     units="px"
     borderlayer="true"
     inkscape:showpageshadow="false"
     inkscape:pagecheckerboard="false"
     showguides="true"
     inkscape:guide-bbox="true"
     inkscape:document-rotation="0"
     fit-margin-top="0"
     fit-margin-left="0"
     fit-margin-right="0"
     fit-margin-bottom="0">
    <inkscape:grid
       type="xygrid"
       id="grid4499"
       spacingx="5.2916667"
       spacingy="5.2916667"
       empspacing="20"
       dotted="true"
       originx="27.839217"
       originy="-7.0762596" />
  </sodipodi:namedview>
  <metadata
     id="metadata5">
    <rdf:RDF>
      <cc:Work
         rdf:about="">
        <dc:format>image/svg+xml</dc:format>
        <dc:type
           rdf:resource="http://purl.org/dc/dcmitype/StillImage" />
        <dc:title />
        <cc:license
           rdf:resource="http://creativecommons.org/publicdomain/zero/1.0/" />
      </cc:Work>
      <cc:License
         rdf:about="http://creativecommons.org/publicdomain/zero/1.0/">
        <cc:permits
           rdf:resource="http://creativecommons.org/ns#Reproduction" />
        <cc:permits
           rdf:resource="http://creativecommons.org/ns#Distribution" />
        <cc:permits
           rdf:resource="http://creativecommons.org/ns#DerivativeWorks" />
      </cc:License>
    </rdf:RDF>
  </metadata>
  <g
     id="g1447-6-6"
     inkscape:export-filename="export/themeforest/webman-design.png"
     inkscape:export-xdpi="384.49957"
     inkscape:export-ydpi="384.49957"
     transform="matrix(0.26458333,0,0,0.26458333,-110.27256,-183.28805)"
     style="display:inline">
    <rect
       transform="rotate(15)"
       ry="10"
       rx="10"
       y="552.43573"
       x="606.16876"
       height="108.1732"
       width="108.1732"
       id="rect1608-1-0-8"
       style="display:inline;fill:#fbce2f;fill-opacity:1;stroke:none;stroke-width:1.99999;stroke-linecap:round;stroke-linejoin:round" />
    <path
       id="rect851"
       style="display:inline;fill:#1a1a1a;fill-opacity:1;stroke:none;stroke-width:1.99999;stroke-linecap:round;stroke-linejoin:round;opacity:1"
       d="M 64 8.0058594 L 64 119.99414 L 92.585938 127.6543 C 97.937167 129.08815 103.40013 125.93521 104.83398 120.58398 L 127.6543 35.414062 C 129.08815 30.062833 125.93521 24.599873 120.58398 23.166016 L 64 8.0058594 z "
       transform="translate(416.77818,692.74224)" />
    <path
       id="path866"
       style="font-style:normal;font-variant:normal;font-weight:bold;font-stretch:normal;font-size:19.6492px;line-height:150%;font-family:'Segoe UI';-inkscape-font-specification:'Segoe UI Bold';letter-spacing:1.22808px;word-spacing:0px;writing-mode:lr-tb;fill:#1a1a1a;fill-opacity:1;stroke:none;stroke-width:0.800223px;stroke-linecap:butt;stroke-linejoin:miter;stroke-opacity:1"
       d="m 438.77818,749.74226 v 14 h 3.04492 v -5.35937 h 0.82031 c 0.18858,0 0.36044,0.0423 0.51758,0.12695 0.16344,0.0781 0.31831,0.19536 0.46289,0.35156 0.15086,0.1497 0.29879,0.33209 0.44336,0.54688 0.14458,0.21478 0.29598,0.45906 0.45313,0.73242 l 2.10156,3.60156 h 3.49805 l -2.55469,-4.13867 c -0.132,-0.21478 -0.27993,-0.433 -0.44336,-0.6543 -0.15714,-0.2278 -0.32399,-0.4395 -0.5,-0.63476 -0.17601,-0.19525 -0.3583,-0.36462 -0.54687,-0.50781 -0.18858,-0.14972 -0.38284,-0.2572 -0.58399,-0.32227 v -0.0391 c 0.45887,-0.13668 0.87327,-0.32559 1.24414,-0.5664 0.37715,-0.24082 0.69693,-0.52745 0.96094,-0.85938 0.264,-0.33194 0.46871,-0.70325 0.61328,-1.11328 0.14457,-0.41655 0.2168,-0.86732 0.2168,-1.35547 0,-2.53835 -1.64069,-3.80859 -4.92188,-3.80859 z m 12.17188,0 v 2.56836 h 3.83789 v 11.43164 h 3.05468 v -11.43164 h 3.85547 v -2.56836 z m 13.77539,0 v 14 h 8.05273 v -2.55859 h -5.00781 v -11.44141 z m -22.90235,2.36328 h 1.37696 c 1.4143,0 2.12109,0.61037 2.12109,1.83399 0,0.58577 -0.20122,1.07759 -0.60352,1.47461 -0.396,0.39051 -0.92048,0.58595 -1.57422,0.58595 h -1.32031 z" />
    <path
       id="path877"
       style="font-style:normal;font-variant:normal;font-weight:bold;font-stretch:normal;font-size:19.6492px;line-height:150%;font-family:'Segoe UI';-inkscape-font-specification:'Segoe UI Bold';letter-spacing:1.22808px;word-spacing:0px;writing-mode:lr-tb;opacity:1;fill:#fbce2f;fill-opacity:1;stroke:none;stroke-width:0.800223px;stroke-linecap:butt;stroke-linejoin:miter;stroke-opacity:1"
       d="m 522.77818,749.74226 v 14 h -3.04492 v -5.35937 h -0.82031 c -0.18858,0 -0.36044,0.0423 -0.51758,0.12695 -0.16344,0.0781 -0.31831,0.19536 -0.46289,0.35156 -0.15086,0.1497 -0.29879,0.33209 -0.44336,0.54688 -0.14458,0.21478 -0.29598,0.45906 -0.45313,0.73242 l -2.10156,3.60156 h -3.49805 l 2.55469,-4.13867 c 0.132,-0.21478 0.27993,-0.433 0.44336,-0.6543 0.15714,-0.2278 0.32399,-0.4395 0.5,-0.63476 0.17601,-0.19525 0.3583,-0.36462 0.54687,-0.50781 0.18858,-0.14972 0.38284,-0.2572 0.58399,-0.32227 v -0.0391 c -0.45887,-0.13668 -0.87327,-0.32559 -1.24414,-0.56641 -0.37715,-0.24082 -0.69693,-0.52744 -0.96094,-0.85937 -0.264,-0.33194 -0.46871,-0.70325 -0.61328,-1.11328 -0.14457,-0.41656 -0.2168,-0.86733 -0.2168,-1.35547 0,-2.53835 1.64069,-3.8086 4.92188,-3.8086 z m -12.17188,0 v 2.56836 h -3.83789 v 11.43164 h -3.05468 v -11.43164 h -3.85547 v -2.56836 z m -13.77539,0 v 14 h -8.05273 v -2.55859 h 5.00781 v -11.44141 z m 22.90235,2.36328 h -1.37696 c -1.4143,0 -2.12109,0.61037 -2.12109,1.83399 0,0.58577 0.20122,1.07759 0.60352,1.47461 0.396,0.39051 0.92048,0.58595 1.57422,0.58595 h 1.32031 z" />
  </g>
</svg>
